<?xml version="1.0" encoding="utf-8"?>
<!-- Generator: Adobe Illustrator 13.0.2, SVG Export Plug-In  -->
<!DOCTYPE svg PUBLIC "-//W3C//DTD SVG 1.1//EN" "http://www.w3.org/Graphics/SVG/1.1/DTD/svg11.dtd" [
	<!ENTITY ns_flows "http://ns.adobe.com/Flows/1.0/">
]>
<svg version="1.1"
	 xmlns="http://www.w3.org/2000/svg" xmlns:xlink="http://www.w3.org/1999/xlink" xmlns:a="http://ns.adobe.com/AdobeSVGViewerExtensions/3.0/"
	 x="0px" y="0px" width="105px" height="15px" viewBox="-0.4 0 105 15" enable-background="new -0.4 0 105 15" xml:space="preserve"
	>
<defs>
</defs>
<path fill="#005596" d="M14.022,5.301V3.914c0,0,0.368-3.914-6.929-3.914C0.324,0,0,3.914,0,3.914v6.971
	c0,0,0.569,3.873,7.094,3.873c5.543,0,6.929-2.771,6.929-2.771V7.012H7.094v1.875h3.26v3.1c0,0-0.163,0.896-3.26,0.896
	c-3.629,0-3.426-1.998-3.426-1.998V3.914c0,0-0.203-2.119,3.426-2.119c3.546,0,3.26,2.119,3.26,2.119v1.387H14.022"/>
<path fill="#005596" d="M26.823,4.902v9.42h2.955V7.033c0,0,0-1.204,2.406-1.204c2.426,0,2.426,1.183,2.426,1.183v7.318h2.955V6.706
	c0,0-0.122-2.486-5.381-2.486c-1.8,0-2.996,0.292-3.791,0.675l0.021-0.002L26.823,4.902"/>
<path fill="#005596" d="M50.307,4.902v9.42h2.956V7.033c0,0,0-1.204,2.405-1.204c2.425,0,2.425,1.183,2.425,1.183v7.318h2.956V6.706
	c0,0-0.122-2.486-5.381-2.486c-1.802,0-2.996,0.292-3.791,0.675l0.019-0.002L50.307,4.902"/>
<path fill="#005596" d="M80.185,10.254h-7.787c0,0-0.019,1.744-0.006,1.744c0.012,0.001,0.006,1.191,2.413,1.191
	c2.425,0,2.429-1.197,2.429-1.197l-0.004-0.781h2.955v0.775c0,0,0.225,2.771-5.38,2.771c-5.607,0-5.362-2.771-5.362-2.771V7.154
	c0,0-0.224-2.771,5.362-2.771c5.625,0,5.38,2.792,5.38,2.792V10.254z M72.394,7.215l0.004,1.081h4.832c0,0,0.008-1.085,0.009-1.081
	c0,0,0.005-1.222-2.434-1.222C72.397,5.993,72.394,7.215,72.394,7.215"/>
<path fill="#005596" d="M91.967,8.473V7.175c0,0,0.245-2.792-5.381-2.792c-5.586,0-5.361,2.771-5.361,2.771v4.832
	c0,0-0.245,2.771,5.361,2.771c5.604,0,5.381-2.771,5.381-2.771v-1.203h-2.955l0.004,1.209c0,0-0.004,1.197-2.43,1.197
	c-2.406,0-2.399-1.203-2.412-1.205c-0.015,0,0.006-4.77,0.006-4.77c0.009,0,0.042-1.222,2.528-1.222
	c2.345,0,2.304,1.202,2.304,1.202v1.271L91.967,8.473"/>
<path fill="#005596" d="M61.722,4.736h0.936V2.475h2.957v2.262h3.24v1.591h-3.24v5.79c0,0,0.162,1.467,3.099,1.063
	c0,0,0.017,1.437-0.004,1.439c-2.547,0.33-6.052,0.065-6.052-2.502v-5.79h-0.936V4.736"/>
<path fill="#005596" d="M93.129,0.126c0,0,2.956,0.026,2.956-0.004c0-0.021-0.017,4.321,0.001,4.321
	c0.65-0.139,1.432-0.224,2.403-0.224c5.259,0,5.382,2.486,5.382,2.486v7.624h-2.955V7.012c0,0,0-1.183-2.427-1.183
	c-2.404,0-2.404,1.204-2.404,1.204v7.289h-2.956V0.126"/>
<path fill="#005596" d="M49.31,10.254h-7.787c0,0-0.019,1.744-0.006,1.744c0.014,0.001,0.006,1.191,2.413,1.191
	c2.425,0,2.429-1.197,2.429-1.197l-0.004-0.781h2.955v0.775c0,0,0.225,2.771-5.38,2.771c-5.606,0-5.362-2.771-5.362-2.771V7.154
	c0,0-0.224-2.771,5.362-2.771c5.626,0,5.38,2.792,5.38,2.792V10.254z M41.519,7.215l0.004,1.081h4.832c0,0,0.008-1.085,0.009-1.081
	c0,0,0.005-1.222-2.434-1.222C41.522,5.993,41.519,7.215,41.519,7.215"/>
<path fill="#005596" d="M25.825,10.254h-7.786c0,0-0.021,1.744-0.008,1.744c0.015,0.001,0.008,1.191,2.411,1.191
	c2.427,0,2.433-1.197,2.433-1.197l-0.006-0.781h2.956v0.775c0,0,0.225,2.771-5.383,2.771c-5.604,0-5.358-2.771-5.358-2.771V7.154
	c0,0-0.226-2.771,5.358-2.771c5.627,0,5.383,2.792,5.383,2.792V10.254z M18.034,7.215l0.005,1.081h4.83c0,0,0.01-1.085,0.01-1.081
	c0,0,0.004-1.222-2.437-1.222C18.039,5.993,18.034,7.215,18.034,7.215"/>
</svg>
