<svg height="316.227766" viewBox="0 0 25.554779 25.501789" width="316.227766" xmlns="http://www.w3.org/2000/svg"><g fill="#1393cb" transform="translate(-4.3842 -3.97998)"><path d="m6.846 9.429s3.425-6.176 12.193-5.193c0 0 4.412.636 7.31 4.08 0 0-2.524 1.14-7.792-.537 0-.001-6.494-3.51-11.711 1.65"/><path d="m29.008 20.304c-.435 1.257-2.733 2.97-3.712 3.318-.978.347-1.962 1.505-1.962 1.505-.016-1.654 1.666-3.663 3.795-5.521 2.132-1.859 2.349-4.888 2.349-4.888.749 2.025-.035 4.329-.47 5.586"/><path d="m25.627 25.002c.109-.142.252-1.311.252-1.311.639-.107 1.933-1.259 1.933-1.259-.287 2.337-2.185 2.57-2.185 2.57"/><path d="m18.539 27.345c-1.471-.462-3.403-.479-3.403-.479 2.087-1.74 5.399-1.552 7.763-1.231 2.359.322 3.572-.653 3.572-.653-1.882 3.387-6.459 2.824-7.932 2.363"/><path d="m16.797 28.597c.432.022 1.421-.917 1.421-.917.439.241 2.755.432 2.755.432-2.45 1.662-4.176.485-4.176.485"/><path d="m9.952 24.389c-.57-1.068-2.056-2.312-2.056-2.312 4.147.26 6.03 3.984 7.324 5.64 1.119 1.434 2.157 1.481 2.157 1.481-4.328.966-6.765-3.575-7.425-4.809"/><path d="m11.437 27.284c-2.02-.062-2.804-2.309-2.804-2.309.04.192 1.359.103 1.359.103.494.812 1.445 2.206 1.445 2.206"/><path d="m4.716 19.036s2.178.798 2.905 3.756c.729 2.96 1.26 3.461 1.348 3.504.001 0-3.329-1.844-4.253-7.26"/><path d="m9.711 19.495c1.406.235 2.164 1.668 2.164 1.668l.15.05c.184-.229.647-.701 1.205-.662.556.036 1.303.565 1.303.565 1.425.579 1.972-.569 1.972-.569-1.142-.857-2.439-.705-2.439-.705-2.05.184-3.129-.166-3.129-.166-1.153-.266-1.141-1.389-1.141-1.389l-.204-.117c-1.376.298-2.417-.64-2.417-.64.301 1.128 1.131 1.729 2.536 1.965m-1.247-2.805c1.135.67 1.37 1.291 1.37 1.291l.119.046c.203-.381.917-.355.917-.355.667.144 1.327 1.13 1.327 1.13 1.343.757 1.525.279 1.525.279-.811-1.783-2.303-1.561-3.413-1.914-1.109-.355-.77-1.343-.77-1.343l-.143-.111c-1.642-.077-2.142-1.604-2.142-1.604-.236.908.077 1.912 1.21 2.581zm.591-2.266c.478.434.58 1.132.58 1.132l.115.077c1.234-.161 1.595.975 1.595.975.701.647 1.218.493 1.218.493-.164-.956-1.478-1.678-2.036-1.966-.557-.287-.359-1.135-.359-1.135.056-.211-.189-.242-.189-.242-1.236-.34-1.362-1.853-1.362-1.853-.84.991-.039 2.085.438 2.519zm1.206-1.692c.191.74.133.952.133.952l.045.129c.722-.036.774.563.774.563.175.866 1.064 1.223 1.064 1.223.184-.727-.335-1.319-.852-1.944-.517-.623-.007-1.216-.007-1.216l-.099-.2c-.865-.324-.998-1.525-.998-1.525-.55.681-.25 1.277-.06 2.018zm1.345-1.3c.184.521-.004.779-.004.779l.078.134c.552.067.619.794.619.794-.196.849.107.917.107.917.635-.856-.067-2.254-.217-2.552-.149-.3-.283-1.251-.283-1.251-.599.299-.3 1.179-.3 1.179zm1.464.772c.404-1.011.034-2.054.034-2.054-.903.762-.034 2.054-.034 2.054zm.697-1.1.623-1.016c-.91-.203-.623 1.016-.623 1.016zm2.905-2.574c-.777.496-2.253 2.342-2.518 2.716s-.864 1.452-1.005 1.841c-.143.387-.305 1.21-.305 1.21-.209.691-.094 1.268-.094 1.268-.113.922.152.797.414 1.452.263.657.644.859 1.09 1.538.448.679.609.638.609.638.561.005 1.672.36 1.672.36.694.428 1.043.128 1.043.128.527-.217 1.511-.626 1.902-.765.393-.14.625-.516.625-.516.087-.458.738-1.438.971-1.814s.219-.504.129-1.045c-.088-.54-.185-1.551-.185-1.551.124-.764-.332-1.101-.332-1.101-.749-.499-1.084-.818-1.084-.818-.683-.802-1.184-.77-1.184-.77-2.881-.417-3.12-1.008-3.12-1.008l.548-.648c.733.621 2.055.782 2.055.782 2.703.582 4.255-1.38 5.887-1.461 1.629-.08 1.652 1.263 1.652 1.263l.15.051c.932-.479 2.846.441 3.409 2.446.565 2.002-.332 3.731-.332 3.731-.007-1.465-1.745-2.804-2.435-3.792s-.711-2.083-.711-2.083l-.12-.045c-.367.453-.386 1.106-2.368.487-1.982-.617-3.016.191-3.016.191.953 1.365 1.884 1.417 3.586 2.031 1.701.614 2.088 1.037 2.088 1.037 1.543 1.655.182 2.579.182 2.579l.104.167c1.152.516 1.523 1.811 1.523 1.811-.439.538-1.889 1.669-1.889 1.669-.527-2.062.127-3.32.127-3.32l-.134-.174c-.919-.142-1.086.212-1.651-1.543-.564-1.754-1.979-1.927-1.979-1.927-.191 1.317-.242 2.497 1.141 4.694 1.383 2.195 1.088 2.565 1.088 2.565-.107 1.39-1.268 1.435-1.268 1.435l-.012.093c.659 1.234-.081 2.952-.081 2.952-.819-.195-2.75-.213-2.75-.213.729-1.876 2.556-2.773 2.556-2.773l-.047-.13c-.76-.406-.879-1.231-.584-1.85.295-.62.305-1.211.305-1.211-.08-1.631-.744-1.807-.744-1.807-1.162 1.074-1.447 4.157-1.447 4.157-.07 2.111-.769 2.462-.769 2.462-.74.689-1.645.174-1.645.174l-.11.142c-1.06 1.772-2.875 2.329-2.875 2.329-.077-.135-1.513-2.15-1.513-2.15.88-.827 4.204-.451 4.204-.451l.076-.115c-.383-1.2.521-1.713.521-1.713 1.553-.714 1.543-1.899 1.543-1.899.125-.764-.04-.442-.91-.206-.871.236-2.596 2.612-4.487 2.756-1.888.142-2.189-1.082-2.189-1.082-.105-.292-.301-.224-.301-.224-.879.314-1.888.144-1.888.144-2.719-.708-5.08-2.823-5.248-6.024-.167-3.201 2.411-5.925 2.411-5.925 4.46-4.692 10.617-1.877 10.617-1.877z"/></g></svg>